<svg width="100" height="72" viewBox="0 0 100 72" xmlns="http://www.w3.org/2000/svg" xmlns:xlink="http://www.w3.org/1999/xlink"><defs><rect id="a" x="12.339" y="11" width="74.005" height="54" rx="4"/><mask id="f" x="0" y="0" width="74.005" height="54" fill="white"><use xlink:href="#a"/></mask><path d="M4 55.654h65.667v5.355c0 2.203-1.79 3.99-4.01 3.99H8.01C5.794 65 4 63.21 4 61.01v-5.356z" id="b"/><mask id="g" x="0" y="0" width="65.667" height="9.346" fill="white"><use xlink:href="#b"/></mask><rect id="c" x="18.593" y="17.231" width="58.37" height="36.346" rx="1"/><mask id="h" x="0" y="0" width="58.37" height="36.346" fill="white"><use xlink:href="#c"/></mask><rect id="d" x="64.455" y="17.231" width="29.185" height="47.769" rx="4"/><mask id="i" x="0" y="0" width="29.185" height="47.769" fill="white"><use xlink:href="#d"/></mask><mask id="j" x="-3" y="-3" width="35.185" height="53.769"><path fill="white" d="M61.455 14.23H96.64V68H61.455z"/><use xlink:href="#d" fill="black"/></mask><rect id="e" x="69.667" y="22.423" width="18.762" height="33.231" rx="1"/><mask id="k" x="0" y="0" width="18.762" height="33.231" fill="white"><use xlink:href="#e"/></mask></defs><g fill="none" fill-rule="evenodd"><use stroke="#4A4A4A" mask="url(#f)" stroke-width="6" fill="#FFFFFF" xlink:href="#a"/><use stroke="#4A4A4A" mask="url(#g)" stroke-width="6" fill="#FFFFFF" xlink:href="#b"/><use stroke="#FF5950" mask="url(#h)" stroke-width="6" stroke-linecap="round" stroke-linejoin="round" xlink:href="#c"/><g stroke-width="6" stroke-linecap="round" stroke-linejoin="round"><use stroke="#4A4A4A" mask="url(#i)" fill="#FFFFFF" xlink:href="#d"/><use stroke="#FFFFFF" mask="url(#j)" xlink:href="#d"/></g><use stroke="#FF5950" mask="url(#k)" stroke-width="4" stroke-linecap="round" stroke-linejoin="round" xlink:href="#e"/><path d="M20.156 41.635L30.63 31.198M28.495 40.596l12.508-12.46" stroke="#FF5950" stroke-width="2" stroke-linecap="round" stroke-linejoin="round"/><path d="M75.4 58.77h7.296" stroke="#4A4A4A" stroke-width="2" stroke-linecap="round" stroke-linejoin="round"/></g></svg>
