<svg width="72" height="72" viewBox="0 0 72 72" xmlns="http://www.w3.org/2000/svg" xmlns:xlink="http://www.w3.org/1999/xlink"><defs><rect id="a" x="18.981" y="38.294" width="9.038" height="14.588" rx="4.519"/><mask id="b" x="0" y="0" width="9.038" height="14.588" fill="white"><use xlink:href="#a"/></mask></defs><g transform="translate(13 6)" fill="none" fill-rule="evenodd"><path d="M23.5 53.208c7.16 0 6.645-5.865 10.303-12.72 2.93-5.49 6.87-11.615 6.87-15.87 0-9.568-7.69-17.324-17.173-17.324-9.484 0-17.173 7.756-17.173 17.324 0 4.138 3.824 10.044 6.63 15.416C16.64 47.082 16.34 53.208 23.5 53.208z" stroke="#FF5950" stroke-width="3" fill="#FFFFFF"/><g stroke="#FF5950" stroke-width="2" stroke-linecap="round" stroke-linejoin="round"><path d="M33.442 24.618s-.243 3.166-3.163 3.166-3.165-3.166-3.165-3.166"/><path d="M27.115 24.618s-.243 3.166-3.163 3.166-3.164-3.166-3.164-3.166"/><path d="M20.788 24.618s-.243 3.166-3.163 3.166-3.163-3.166-3.163-3.166"/></g><path stroke="#4A4A4A" stroke-width="2" stroke-linecap="round" stroke-linejoin="round" d="M18.054 31.86l5.38 10.64 5.622-10.558"/><path d="M0 25.05S1.81.43 23.5.43 47 25.05 47 25.05" stroke="#FF5950" stroke-width="2" stroke-linecap="round" stroke-linejoin="round" stroke-dasharray="1,11"/><use stroke="#4A4A4A" mask="url(#b)" stroke-width="4" fill="#FFFFFF" xlink:href="#a"/><path d="M15.365 47.412h16.27v7.294c0 4.028-3.273 7.294-7.302 7.294h-1.666c-4.032 0-7.302-3.274-7.302-7.294v-7.294z" stroke="#4A4A4A" stroke-width="3" fill="#FFFFFF"/><path d="M15.817 53.338l15.366-4.56M17.625 57.897l13.558-4.56" stroke="#4A4A4A" stroke-width="2" stroke-linecap="square"/></g></svg>
