<svg width="95" height="72" viewBox="0 0 95 72" xmlns="http://www.w3.org/2000/svg" xmlns:xlink="http://www.w3.org/1999/xlink"><defs><path id="a" d="M11 28h10v30H11z"/><mask id="d" x="0" y="0" width="10" height="30" fill="white"><use xlink:href="#a"/></mask><rect id="b" x="52" width="5" height="50" rx="2.5"/><mask id="e" x="0" y="0" width="5" height="50" fill="white"><use xlink:href="#b"/></mask><path d="M0 21.997C0 16.477 4.47 12 10.006 12H25v26H10.006C4.48 38 0 33.53 0 28.003v-6.006z" id="c"/><mask id="f" x="0" y="0" width="25" height="26" fill="white"><use xlink:href="#c"/></mask></defs><g transform="translate(10 9)" stroke-linecap="round" stroke-linejoin="round" fill="none" fill-rule="evenodd"><circle stroke="#FF5950" stroke-width="2" fill="#FFFFFF" cx="20.5" cy="44.5" r="2.5"/><circle stroke="#FF5950" stroke-width="3" fill="#FFFFFF" cx="53" cy="25" r="8"/><use stroke="#4A4A4A" mask="url(#d)" stroke-width="6" fill="#FFFFFF" xlink:href="#a"/><path d="M23 14.034s16.28 2.5 30.188-11.402c2.164 14.893 1.31 38.367-.113 44.674C43.97 33.18 23.2 35.984 23.2 35.984l-.2-21.95z" stroke="#4A4A4A" stroke-width="3" fill="#FFFFFF"/><use stroke="#4A4A4A" mask="url(#e)" stroke-width="6" fill="#D8D8D8" xlink:href="#b"/><use stroke="#4A4A4A" mask="url(#f)" stroke-width="6" fill="#FFFFFF" xlink:href="#c"/><path d="M67.5 18.5l8-7M67.5 30.5l8 8M67.5 25h11" stroke="#FF5950" stroke-width="2" stroke-dasharray="1,3"/></g></svg>
