<svg width="53" height="68" viewBox="0 0 53 68" xmlns="http://www.w3.org/2000/svg"><g transform="translate(2 2)" fill="none" fill-rule="evenodd"><path d="M.718 37.626S-1.017 45.61 4.166 52.05c5.183 6.442 4.982 7.974 4.982 11.496h10.04V60.3h6.706v3.246h9.664c0-2.047-.71-4.22 1.69-7.02 2.4-2.802 7.243-7.275 7.243-10.313h1.605s2.59.065 2.59-2.442v-5.93c0-2.686-2.59-2.342-2.59-2.342H44.49s-1.957-6.31-6.268-9.46c.67-3.165 1.182-7.97 1.182-7.97s-6.406-.524-8.873 4.105c-2.096-.568-5.06-.98-5.06-.98" stroke="#4A4A4A" stroke-width="3" stroke-linecap="round" stroke-linejoin="round"/><circle stroke="#FF5950" stroke-width="3" cx="10.5" cy="24.5" r="9.5"/><circle stroke="#FF5950" stroke-width="3" cx="22.5" cy="6.5" r="6.5"/><path d="M5.5 31.5l5-5M6.5 25.5l4.528-4.528" stroke="#FF5950" stroke-width="2" stroke-linecap="round"/></g></svg>
